<svg width="22" height="12" viewBox="0 0 22 12" fill="none" xmlns="http://www.w3.org/2000/svg">
    <path d="M1.05769 6.96774L18.3805 6.96774L14.6699 10.3463C14.2558 10.7234 14.2542 11.3361 14.6663 11.7149C15.0784 12.0938 15.7481 12.0952 16.1622 11.7182L21.6888 6.68594L21.6898 6.68502C22.1027 6.30798 22.1041 5.69327 21.6899 5.31498L21.6889 5.31406L16.1623 0.281804C15.7483 -0.0951324 15.0786 -0.0938269 14.6664 0.285093C14.2543 0.663915 14.2559 1.27664 14.67 1.65367L18.3805 5.03226L1.05769 5.03226C0.47353 5.03226 5.71263e-07 5.46551 5.24537e-07 6C4.77811e-07 6.53448 0.47353 6.96774 1.05769 6.96774Z" fill="white"/>
</svg>
