<svg width="22" height="12" viewBox="0 0 22 12" fill="none" xmlns="http://www.w3.org/2000/svg">
    <path d="M20.9423 5.03226H3.61955L7.33014 1.65367C7.74417 1.27664 7.74576 0.663916 7.33368 0.285093C6.92161 -0.0937777 6.25188 -0.0951806 5.83784 0.281803L0.311193 5.31406L0.310241 5.31498C-0.102735 5.69202 -0.104057 6.30673 0.310135 6.68502L0.311087 6.68594L5.83774 11.7182C6.25172 12.0951 6.92145 12.0938 7.33358 11.7149C7.74565 11.3361 7.74407 10.7234 7.33003 10.3463L3.61955 6.96774H20.9423C21.5265 6.96774 22 6.53448 22 6C22 5.46552 21.5265 5.03226 20.9423 5.03226Z" fill="white"/>
</svg>
