<svg width="38" height="34" viewBox="0 0 38 34" fill="none" xmlns="http://www.w3.org/2000/svg">
    <path d="M32.5889 4.63954C32.0812 1.94746 29.7682 0 27.0038 0H22.6034C19.8954 0 17.5824 1.94746 17.0182 4.63954C16.3412 4.86865 15.8335 5.49871 15.8335 6.24333C15.8335 6.70155 16.0027 7.1025 16.2848 7.38889C16.0027 7.67528 15.8335 8.07623 15.8335 8.53445C15.8335 9.27907 16.3412 9.96641 17.0182 10.1382C17.526 12.8303 19.839 14.7778 22.6034 14.7778H27.0038C29.7117 14.7778 32.0248 12.8303 32.5889 10.1382C33.2659 9.90913 33.7737 9.27907 33.7737 8.53445C33.7737 8.07623 33.6044 7.67528 33.3223 7.38889C33.6044 7.1025 33.7737 6.70155 33.7737 6.24333C33.8301 5.49871 33.3223 4.86865 32.5889 4.63954ZM22.6034 1.14556H27.0038C29.0912 1.14556 30.8401 2.57752 31.4042 4.58226H31.1785L31.0657 4.4677C30.8401 4.12403 30.4451 4.00948 30.0502 4.00948H29.7117C29.3168 4.00948 28.9219 4.18131 28.6398 4.4677C28.5834 4.52498 28.4706 4.58226 28.3578 4.58226H28.0193C27.9064 4.58226 27.7936 4.52498 27.7372 4.4677C27.4551 4.12403 27.0602 4.00948 26.6653 4.00948H26.3268C25.9319 4.00948 25.537 4.18131 25.2549 4.4677C25.1985 4.52498 25.0857 4.58226 24.9728 4.58226H24.6343C24.5215 4.58226 24.4087 4.52498 24.3523 4.4677C24.1266 4.12403 23.7317 4.00948 23.3368 4.00948H22.9983C22.6034 4.00948 22.2085 4.18131 21.9264 4.4677C21.87 4.52498 21.7571 4.58226 21.6443 4.58226H21.3058C21.193 4.58226 21.0801 4.52498 21.0237 4.4677C20.7417 4.12403 20.3467 4.00948 19.9518 4.00948H19.6133C19.2184 4.00948 18.8235 4.18131 18.5414 4.4677L18.4286 4.52498H18.2594C18.7671 2.57752 20.5724 1.14556 22.6034 1.14556ZM17.526 5.67054H18.8799L19.3313 5.21232C19.4441 5.15504 19.5005 5.09776 19.6133 5.09776H19.9518C20.0647 5.09776 20.1775 5.15504 20.2339 5.21232C20.516 5.49871 20.9109 5.67054 21.3058 5.67054H21.6443C22.0392 5.67054 22.4341 5.49871 22.7162 5.21232C22.7726 5.15504 22.8854 5.09776 22.9983 5.09776H23.3368C23.4496 5.09776 23.5624 5.15504 23.6189 5.21232C23.9009 5.49871 24.2958 5.67054 24.6907 5.67054H25.0292C25.4242 5.67054 25.8191 5.49871 26.1011 5.21232C26.1576 5.15504 26.2704 5.09776 26.3268 5.09776H26.6653C26.7781 5.09776 26.891 5.15504 26.9474 5.21232C27.2295 5.49871 27.6244 5.67054 28.0193 5.67054H28.3578C28.7527 5.67054 29.1476 5.49871 29.4297 5.21232C29.4861 5.15504 29.5989 5.09776 29.7117 5.09776H30.0502C30.1631 5.09776 30.2759 5.15504 30.3323 5.21232L30.7836 5.67054H32.1376C32.4197 5.67054 32.7018 5.89966 32.7018 6.24333C32.7018 6.58699 32.4761 6.81611 32.1376 6.81611H17.526C17.2439 6.81611 16.9618 6.58699 16.9618 6.24333C16.9618 5.89966 17.2439 5.67054 17.526 5.67054ZM27.0602 13.6322H22.6598C20.5724 13.6322 18.8235 12.2003 18.2594 10.1955H31.4606C30.8965 12.2575 29.1476 13.6322 27.0602 13.6322ZM32.1376 9.10724H17.526C17.2439 9.10724 16.9618 8.87812 16.9618 8.53445C16.9618 8.19078 17.1875 7.96167 17.526 7.96167H32.0812C32.3633 7.96167 32.6454 8.19078 32.6454 8.53445C32.6454 8.87812 32.4197 9.10724 32.1376 9.10724Z" fill="#E7426A"/>
    <path d="M34.5771 15.4609C35.3524 14.7901 36.3505 14.9004 37.0225 15.6729V15.6738C37.6564 16.4112 37.664 17.3696 37.0156 18.0479L36.877 18.1797L27.7246 26.1152C26.434 27.2344 25.0006 27.8462 23.3271 27.9893L22.9893 28.0117L13.3672 28.4678L12.6768 28.501L12.9238 29.1465C13.1174 29.6514 12.9994 30.2212 12.627 30.6064L12.5498 30.6807L10.2471 32.7197C9.7113 33.194 8.90548 33.1767 8.38965 32.7021L8.29004 32.6016L0.845703 24.1953C0.374592 23.6636 0.390397 22.8458 0.860352 22.3389L0.960938 22.2412L0.963867 22.2393L3.2666 20.2002C3.80185 19.7259 4.60925 19.7428 5.125 20.2178L5.22363 20.3193L5.26172 20.3623L5.6709 20.8242L6.03809 20.3281C6.68525 19.4553 7.41624 18.6291 8.23438 17.9395L8.58984 17.6533V17.6523C10.7707 15.9718 13.6477 15.1696 16.0264 16.4648L16.2549 16.5967C17.7792 17.5285 19.4928 18.3054 21.3018 18.6299L21.3457 18.6377H26.5557C27.4375 18.6379 28.0658 19.1388 28.2686 19.9561L28.4648 20.7471L29.0811 20.2139L34.5771 15.4609ZM5.08301 20.4424C4.67245 19.9782 3.97407 19.9127 3.48438 20.2646L3.38965 20.3408L1.08984 22.3799L1.08789 22.3809C0.617129 22.8013 0.545996 23.5231 0.945312 24.0244L0.962891 24.0439L8.43066 32.4785C8.84099 32.9411 9.53754 33.008 10.0283 32.6562L10.124 32.5801L12.4268 30.541C12.8889 30.1311 12.958 29.4338 12.6045 28.9424L12.5283 28.8477L5.08301 20.4424ZM35.8564 15.2236C35.4974 15.1815 35.1418 15.278 34.8311 15.499L34.7002 15.6016L28.21 21.2148L28.1406 21.2744L28.0977 21.3555C27.8296 21.8534 27.3332 22.2266 26.5557 22.2266H15.3242C15.2721 22.2266 15.2287 22.1829 15.2285 22.1309C15.2285 22.0786 15.272 22.0352 15.3242 22.0352H26.5557C27.0099 22.0352 27.4162 21.8739 27.708 21.5684C27.997 21.2657 28.1377 20.86 28.1377 20.4316C28.1377 20.0122 28.003 19.6064 27.7168 19.3018C27.4266 18.9929 27.0182 18.8291 26.5557 18.8291H21.376L21.3184 18.8232C19.7234 18.5431 18.1987 17.9227 16.7676 17.1152L16.1582 16.7578C13.82 15.3289 11.0641 16.1484 9.08984 17.5195L8.70605 17.7998C7.65967 18.6053 6.78661 19.6067 6.03711 20.6484L5.80371 20.9727L6.06836 21.2725L12.1611 28.1514L12.3203 28.3311L12.5596 28.3193L22.9814 27.8252C24.6434 27.7477 26.0744 27.2087 27.3506 26.1846L27.6045 25.9736L36.7568 18.0381C37.1046 17.7359 37.2946 17.3405 37.3057 16.9199C37.3151 16.5585 37.1925 16.212 36.9795 15.9189L36.8828 15.7969L36.8818 15.7959L36.7783 15.6846C36.5263 15.4354 36.2093 15.2652 35.8564 15.2236Z" fill="#EE3686" stroke="#E7426A"/>
</svg>
